<svg xmlns="http://www.w3.org/2000/svg" viewBox="0 0 512 512" height="512mm" width="512mm">
    <path transform="matrix(1.8901678,1.0967407,-1.1378551,1.856002,176.49103,-72.070263)"
          d="m 178.22511,179.52347 -37.3421,-6.1816 a 34.238038,34.238038 161.66719 0 0 -30.24745,10.02261 L 84.373492,210.62156 A 8.8835321,8.8835321 17.667192 0 1 69.192568,205.78628 L 63.53228,168.36162 A 34.238038,34.238038 53.667192 0 0 44.653236,142.69174 L 10.614784,126.13793 a 8.8835321,8.8835321 89.667192 0 1 -0.09254,-15.9321 L 44.366087,93.257717 A 34.238038,34.238038 125.66719 0 0 62.945651,67.37025 l 5.225148,-37.487901 a 8.8835321,8.8835321 161.66719 0 1 15.123728,-5.011304 l 26.576933,26.950157 a 34.238038,34.238038 17.667192 0 0 30.36185,9.670548 l 37.26777,-6.614987 a 8.8835321,8.8835321 53.667192 0 1 9.43952,12.834942 l -17.4184,33.604225 a 34.238038,34.238038 89.667192 0 0 0.18509,31.86419 l 17.8076,33.39962 a 8.8835321,8.8835321 125.66719 0 1 -9.28978,12.94373 z"
          fill="#ffff05"/>
</svg>
